<?xml version="1.0" standalone="no"?><!DOCTYPE svg PUBLIC "-//W3C//DTD SVG 1.1//EN" "http://www.w3.org/Graphics/SVG/1.1/DTD/svg11.dtd">
<svg t="1711456896824" class="icon" viewBox="0 0 1024 1024" version="1.1"
    xmlns="http://www.w3.org/2000/svg" p-id="9955"
    xmlns:xlink="http://www.w3.org/1999/xlink" width="200" height="200">
    <path d="M856.758857 959.853714H167.241143c-90.660571 0-167.241143-91.428571-167.241143-199.862857A366.701714 366.701714 0 0 1 7.058286 694.857143l0.256-1.572572 0.438857-2.486857 0.621714-3.657143 0.841143-5.010285v-16.786286L119.698286 195.84c19.053714-73.984 80.457143-131.949714 139.446857-131.949714h505.636571c60.745143 0 121.270857 61.732571 134.912 137.581714l110.482286 469.394286v15.908571a186.038857 186.038857 0 0 1 13.787429 73.142857c0.036571 108.434286-76.580571 199.936-167.204572 199.936z m-689.517714-330.971428a109.714286 109.714286 0 0 0-103.972572 98.742857v6.436571l-0.585142 1.353143a51.858286 51.858286 0 0 0-3.986286 24.795429c0 73.508571 47.542857 131.108571 108.544 131.108571h689.517714c60.891429 0 108.544-57.6 108.544-131.108571a42.788571 42.788571 0 0 0-1.974857-11.849143 53.101714 53.101714 0 0 1-2.56-15.177143 110.811429 110.811429 0 0 0-104.045714-104.082286zM512 205.275429a113.956571 113.956571 0 0 0-113.810286 113.810285 75.812571 75.812571 0 0 0 0 151.625143h227.584a75.849143 75.849143 0 1 0 0-151.661714A113.92 113.92 0 0 0 512 205.238857z m298.166857 637.44a82.944 82.944 0 1 1 76.982857-82.724572 82.102857 82.102857 0 0 1-77.019428 82.761143z m0-110.336a27.648 27.648 0 1 0 25.6 27.574857 25.234286 25.234286 0 0 0-25.636571-27.538286z m-408.100571 71.387428H169.325714a35.949714 35.949714 0 0 1 0-70.765714h232.740572a35.949714 35.949714 0 0 1 0 70.765714z" fill="#1296db" p-id="9956"></path>
</svg>